<svg width="24" height="24" viewBox="270 270 700 700" fill="currentColor" xmlns="http://www.w3.org/2000/svg">
<path d="M945.08,488.41c-17.55-41.48-42.66-78.73-74.64-110.72s-69.23-57.1-110.72-74.64c-42.96-18.17-88.58-27.38-135.59-27.38-23.48,0-46.61,2.3-69.23,6.86-4.03,14.78-6.75,28.93-8.57,41.03,24.87-6.45,50.94-9.89,77.8-9.89,167.4,0,304.25,133.24,310.11,299.24-43.84,25.92-94.38,40.07-146.3,39.93-1,0-1.3-1.37-.4-1.8,39.79-18.85,72.47-52.69,88.49-97.3,2.19-6.11,3.94-12.27,5.42-18.44-11.05-5.11-22.12-10.37-33.23-15.78-1.32,7.42-3.14,14.83-5.77,22.16-25.65,71.4-104.96,108.41-176.28,81.95l-2.16-.98c-14.55-7.76-28.45-16.36-41.72-25.66-39.95-36.08-56.51-94.05-37.21-147.77,8.42-23.43,22.68-43.05,40.47-58.04-10.21-6.89-20.26-13.83-30.16-20.82-19.08,17.99-34.43,40.48-43.89,66.81-8.13,22.62-11.07,45.82-9.69,68.41.06,1-1.28,1.39-1.77.52-28.05-50.69-40.59-109.65-34.07-169.05.1-.04,2.83-26.71,7.1-43.31-8.28,2.79-16.47,5.89-24.56,9.31-4.83,2.04-9.61,4.2-14.32,6.45l-.02.37s-.04.02-.05.02c-4.51,24-6.27,48.06-5.27,71.8.05,1.11-1.53,1.39-1.85.32-6.06-20.03-10.54-40.57-13.43-61.43-.02.01-.04.02-.06.03l-.02-.36c-27.63,15.53-52.99,34.75-75.69,57.44-31.98,31.98-57.1,69.23-74.64,110.72-18.17,42.96-27.38,88.58-27.38,135.59s9.21,92.64,27.38,135.59c17.55,41.48,42.66,78.73,74.64,110.72s69.23,57.1,110.72,74.64c42.96,18.17,88.58,27.38,135.59,27.38s92.64-9.21,135.59-27.38c41.48-17.54,78.73-42.66,110.72-74.64s57.1-69.23,74.64-110.72c3.76-8.88,7.12-17.88,10.11-26.98-14.32,3.37-29.22,6.33-43.59,8.27-46.25,113.36-157.67,193.45-287.47,193.45-77.93,0-149.23-28.88-203.79-76.49,24.89-27.87,57.44-49.57,99.59-54.26,24.54-2.73,34.04,3.04,48.73,9.49,3.97,1.74,7.73,3.87,11.41,6.13,0,0,36.93,21.72,42,23.54,40.78,14.65,85.05-1.08,108.15-35.5,1.47-2.19,1.45-5.06.01-7.27l-98.49-151.21c-.54-.83.39-1.82,1.26-1.34,12.33,6.93,25.07,13.32,38.57,18.64,11.17,5.1,22.56,9.88,34.32,14.11,86.6,31.11,176.65,33.36,259.62,11.75.08-.4.16-.81.24-1.21.11-.03.23-.06.34-.09,2.38-12.3,4.11-24.74,5.15-37.31l-.33.11c0-.06,0-.12.01-.18-19.8,5.97-40.09,10.45-60.71,13.32-1.1.15-1.52-1.39-.48-1.81,21.93-8.94,42.84-20.28,62.33-33.8,0-.04,0-.07,0-.11l.32-.12c.04-2.24.08-4.48.08-6.73,0-47.02-9.21-92.64-27.38-135.59ZM459.9,542.28s9.36,28.84,32.5,55.04c.5.57.17,1.46-.58,1.56-74.47,10.34-116.3,23.62-177.44,43.84-.37-6.19-.58-12.43-.58-18.71,0-97.72,45.41-185.02,116.23-241.95,18.24,65.81,51.54,126.93,97.42,178.03.71.79-.23,1.96-1.16,1.45-32.96-17.83-66.38-19.27-66.38-19.27Z"/>
</svg>
